<svg width="195" height="38" viewBox="0 0 195 38" fill="none" xmlns="http://www.w3.org/2000/svg">
<g clip-path="url(#clip0_1_1590)">
<path d="M9.4429 14.3695L9.44967 37.9799L0.0135285 32.3097L0 20.1066L0.0202928 20.0866L0 20.0732V8.69259L0.0202928 8.67922L9.4429 14.3695Z" fill="url(#paint0_linear_1_1590)"/>
<path d="M28.3422 38V28.9931H18.9129L28.3422 38Z" fill="url(#paint1_linear_1_1590)"/>
<path d="M9.44967 37.9799V28.9931H18.9129L9.44967 37.9799Z" fill="url(#paint2_linear_1_1590)"/>
<path d="M14.3876 0L9.4632 2.97554L9.4429 2.98891L0.0202942 8.67922L9.4429 14.3695L18.8858 8.66584L18.9061 8.67922L28.3287 2.98891L23.4246 0H14.3876Z" fill="url(#paint3_linear_1_1590)"/>
<path d="M28.3422 14.3695L28.3558 38L37.7784 32.3097L37.7851 20.1066L37.7648 20.0866L37.7851 20.0732V8.69259L37.7648 8.67922L28.3422 14.3695Z" fill="url(#paint4_linear_1_1590)"/>
<path d="M23.4246 0L28.3219 2.97554L28.3422 2.98891L37.7648 8.67922L28.3422 14.3695L9.45643 2.98223L14.3673 0H23.4246Z" fill="url(#paint5_linear_1_1590)"/>
<path d="M82.7133 5.7906H78.878C77.8701 5.7906 76.9975 6.37903 76.6999 7.26166L70.2401 26.4121H75.0359L76.4496 22.2062H84.5126L85.9467 26.4121H90.7425L84.1068 6.7401C83.9174 6.17174 83.3492 5.7906 82.7066 5.7906H82.7133ZM77.789 18.2076L80.4541 10.2773L83.153 18.2076H77.789Z" fill="#231F20"/>
<path d="M98.3997 8.44519C98.3388 9.49499 98.2508 10.6317 98.1358 11.8353C98.0276 13.0656 97.8856 14.3428 97.7097 15.6333C97.5474 16.8971 97.3309 18.1341 97.0874 19.3109C96.9318 20.0331 96.7695 20.6416 96.6004 21.123C96.4313 21.5911 96.2419 21.9521 96.0322 22.2062C95.8292 22.4469 95.579 22.6141 95.2949 22.7077C94.9905 22.8013 94.6117 22.8415 94.172 22.808L93.9352 22.7946V26.3787L94.1179 26.4121C94.8281 26.5392 95.4707 26.5993 96.0525 26.5993C96.4854 26.5993 96.8777 26.5659 97.2294 26.4923C98.075 26.3252 98.7717 25.9775 99.3128 25.4626C99.8404 24.9544 100.273 24.2924 100.598 23.4967C100.909 22.7211 101.18 21.8184 101.396 20.8087C101.633 19.779 101.836 18.7024 102.005 17.6125C102.167 16.536 102.309 15.4661 102.424 14.4364C102.533 13.4334 102.627 12.4973 102.695 11.6414L102.844 9.79588H109.534V26.4188H114.181V5.7906H101.45C99.8337 5.7906 98.5011 6.9407 98.4132 8.44519H98.3997Z" fill="#231F20"/>
<path d="M124.32 18.7827V5.7906H119.606V26.4121H124.212L133.554 13.4267V26.4121H138.268V5.7906H133.662L124.32 18.7827Z" fill="#231F20"/>
<path d="M175.756 8.2379C174.91 7.30846 173.875 6.58631 172.671 6.09819C171.474 5.61006 170.114 5.36935 168.613 5.36935C167.111 5.36935 165.745 5.61675 164.554 6.09819C163.357 6.58631 162.315 7.30178 161.47 8.2379C160.631 9.16734 159.975 10.3041 159.528 11.6213C159.285 12.3435 159.102 13.1325 158.994 13.975H156.085V5.7906H151.431V26.4121H156.085V18.2277H158.994C159.102 19.0635 159.285 19.8459 159.528 20.5747C159.975 21.892 160.624 23.0354 161.47 23.9648C162.315 24.9009 163.35 25.6164 164.554 26.1045C165.751 26.5926 167.118 26.8334 168.613 26.8334C170.108 26.8334 171.474 26.586 172.671 26.1045C173.868 25.6164 174.91 24.9009 175.756 23.9648C176.594 23.0354 177.251 21.8986 177.697 20.5747C178.137 19.2641 178.367 17.7596 178.367 16.108C178.367 14.4564 178.143 12.9386 177.697 11.628C177.251 10.3108 176.594 9.17403 175.756 8.24459V8.2379ZM173.463 16.1014C173.463 17.1043 173.361 18.0338 173.158 18.8696C172.955 19.6921 172.658 20.4075 172.259 20.9893C171.866 21.571 171.366 22.019 170.764 22.3333C170.162 22.6475 169.438 22.8013 168.606 22.8013C167.774 22.8013 167.057 22.6409 166.448 22.3333C165.846 22.019 165.346 21.571 164.953 20.9893C164.554 20.4008 164.256 19.6854 164.054 18.8696C163.851 18.0405 163.749 17.111 163.749 16.1014C163.749 15.0917 163.851 14.1689 164.054 13.3398C164.25 12.524 164.554 11.8086 164.946 11.2201C165.339 10.6384 165.846 10.1904 166.441 9.87612C167.043 9.56185 167.774 9.40806 168.599 9.40806C169.424 9.40806 170.148 9.56854 170.757 9.87612C171.359 10.1904 171.859 10.6384 172.252 11.2201C172.644 11.8086 172.949 12.5173 173.151 13.3398C173.354 14.1689 173.456 15.0984 173.456 16.1014H173.463Z" fill="#231F20"/>
<path d="M182.561 5.7906V26.4121H187.208V9.7892H195V5.7906H182.561Z" fill="#231F20"/>
<path d="M65.6674 5.7906L54.344 5.77054H54.3373C52.1524 5.77054 50.3328 7.32184 50.1908 9.31445L50.157 9.76914C50.0758 10.9393 49.9946 12.0693 49.9135 13.1592C49.8323 14.2492 49.7376 15.3525 49.6361 16.4691C49.555 17.325 49.4264 18.1341 49.2573 18.8763C49.0815 19.6051 48.8515 20.2404 48.5674 20.7753C48.2833 21.2969 47.9248 21.7047 47.4851 21.9856C47.0522 22.2664 46.5246 22.4068 45.8955 22.4068H45.6723V26.4054H67.3652V22.4068H65.6674V5.7906ZM53.3294 21.2634C53.5459 20.7753 53.7082 20.2069 53.8164 19.565C53.9179 18.9499 54.0194 18.1541 54.1276 17.1378C54.2291 16.1548 54.3102 15.2655 54.3779 14.4698C54.4388 13.6741 54.4929 12.8851 54.5402 12.1094C54.5808 11.394 54.6349 10.6116 54.7026 9.76914L61.0204 9.79588V22.4202H52.6327C52.9303 22.0257 53.1603 21.6446 53.3294 21.2701V21.2634Z" fill="#231F20"/>
<path d="M47.1672 36.4019V32.5972H45.6926V32.1827H49.0679V32.5972H47.5933V36.4019H47.1604H47.1672Z" fill="#231F20"/>
<path d="M51.8345 36.4955C51.4151 36.4955 51.0634 36.4019 50.7725 36.2147C50.4817 36.0274 50.2652 35.7667 50.1164 35.439C49.9676 35.1114 49.8932 34.7302 49.8932 34.2956C49.8932 33.861 49.9676 33.4799 50.1164 33.1522C50.2652 32.8246 50.4817 32.5638 50.7725 32.3766C51.0634 32.1893 51.4151 32.0957 51.8345 32.0957C52.2539 32.0957 52.6124 32.1893 52.8965 32.3766C53.1874 32.5638 53.4038 32.8246 53.5526 33.1522C53.7014 33.4799 53.7759 33.861 53.7759 34.2956C53.7759 34.7302 53.7014 35.1114 53.5526 35.439C53.4038 35.7667 53.1874 36.0274 52.8965 36.2147C52.6056 36.4019 52.2539 36.4955 51.8345 36.4955ZM51.8345 36.0809C52.166 36.0809 52.4365 36.0074 52.6598 35.8536C52.883 35.6998 53.0453 35.4925 53.1535 35.2251C53.2618 34.9576 53.3159 34.6433 53.3159 34.2956C53.3159 33.9479 53.2618 33.6336 53.1535 33.3662C53.0453 33.0987 52.8762 32.8914 52.6598 32.7376C52.4433 32.5838 52.166 32.5103 51.8345 32.5103C51.5031 32.5103 51.2325 32.5838 51.0093 32.7376C50.7928 32.8914 50.6237 33.0987 50.5155 33.3662C50.4073 33.6336 50.3464 33.9479 50.3464 34.2956C50.3464 34.6433 50.4005 34.9576 50.5087 35.2251C50.6169 35.4925 50.7861 35.6998 51.0025 35.8536C51.2257 36.0074 51.4963 36.0809 51.8278 36.0809H51.8345Z" fill="#231F20"/>
<path d="M54.9528 36.4019V32.1827H56.583C56.6236 32.1827 56.671 32.1827 56.7251 32.1827C56.7792 32.1827 56.8265 32.1893 56.8806 32.2027C57.1039 32.2361 57.2865 32.3097 57.4421 32.4301C57.5977 32.5504 57.7127 32.7042 57.7938 32.8847C57.875 33.0653 57.9156 33.2659 57.9156 33.4865C57.9156 33.7072 57.875 33.9078 57.7938 34.0883C57.7127 34.2689 57.5977 34.4227 57.4421 34.543C57.2865 34.6634 57.1039 34.7369 56.8806 34.7704C56.8265 34.7771 56.7724 34.7837 56.7251 34.7904C56.671 34.7904 56.6304 34.7904 56.583 34.7904H55.3857V36.3952H54.9528V36.4019ZM55.3857 34.3892H56.5695C56.6033 34.3892 56.6439 34.3892 56.6912 34.3892C56.7386 34.3892 56.786 34.3759 56.8265 34.3692C56.9686 34.3357 57.0903 34.2756 57.185 34.1886C57.2797 34.1017 57.3474 33.9947 57.3947 33.8744C57.4421 33.754 57.4624 33.627 57.4624 33.4932C57.4624 33.3595 57.4421 33.2391 57.3947 33.1121C57.3474 32.9917 57.2797 32.8847 57.185 32.7978C57.0903 32.7109 56.9754 32.6507 56.8265 32.6173C56.7792 32.6106 56.7386 32.6039 56.6912 32.5972C56.6439 32.5972 56.6033 32.5972 56.5695 32.5972H55.3857V34.3892Z" fill="#231F20"/>
<path d="M59.079 36.4019V32.1827H61.7171V32.5972H59.5119V36.4019H59.079Z" fill="#231F20"/>
<path d="M64.4769 36.4955C64.0575 36.4955 63.7058 36.4019 63.4149 36.2147C63.124 36.0274 62.9076 35.7667 62.7588 35.439C62.61 35.1114 62.5356 34.7302 62.5356 34.2956C62.5356 33.861 62.61 33.4799 62.7588 33.1522C62.9076 32.8246 63.124 32.5638 63.4149 32.3766C63.7058 32.1893 64.0575 32.0957 64.4769 32.0957C64.8963 32.0957 65.2548 32.1893 65.5389 32.3766C65.8297 32.5638 66.0462 32.8246 66.195 33.1522C66.3438 33.4799 66.4182 33.861 66.4182 34.2956C66.4182 34.7302 66.3438 35.1114 66.195 35.439C66.0462 35.7667 65.8297 36.0274 65.5389 36.2147C65.248 36.4019 64.8963 36.4955 64.4769 36.4955ZM64.4769 36.0809C64.8083 36.0809 65.0789 36.0074 65.3021 35.8536C65.5254 35.6998 65.6877 35.4925 65.7959 35.2251C65.9042 34.9576 65.9583 34.6433 65.9583 34.2956C65.9583 33.9479 65.9042 33.6336 65.7959 33.3662C65.6877 33.0987 65.5186 32.8914 65.3021 32.7376C65.0857 32.5838 64.8083 32.5103 64.4769 32.5103C64.1454 32.5103 63.8749 32.5838 63.6517 32.7376C63.4352 32.8914 63.2661 33.0987 63.1579 33.3662C63.0496 33.6336 62.9888 33.9479 62.9888 34.2956C62.9888 34.6433 63.0429 34.9576 63.1511 35.2251C63.2593 35.4925 63.4284 35.6998 63.6449 35.8536C63.8681 36.0074 64.1387 36.0809 64.4701 36.0809H64.4769Z" fill="#231F20"/>
<path d="M67.5885 36.4019V32.1827H69.2186C69.4554 32.1827 69.6583 32.2295 69.8342 32.3298C70.0101 32.4301 70.1453 32.5571 70.2468 32.7243C70.3415 32.8914 70.3956 33.072 70.3956 33.2726C70.3956 33.4999 70.3347 33.7005 70.213 33.881C70.0912 34.0616 69.9289 34.1819 69.726 34.2488V34.1084C69.9965 34.1886 70.2062 34.3224 70.3618 34.5163C70.5174 34.7102 70.5986 34.9509 70.5986 35.2251C70.5986 35.4725 70.5444 35.6797 70.443 35.8536C70.3415 36.0275 70.1927 36.1679 70.0033 36.2615C69.8139 36.3551 69.5974 36.4019 69.3472 36.4019H67.5817H67.5885ZM68.0214 33.9813H69.2119C69.3472 33.9813 69.4689 33.9479 69.5839 33.8877C69.6921 33.8276 69.7868 33.7406 69.8477 33.6336C69.9154 33.5267 69.9424 33.3996 69.9424 33.2592C69.9424 33.0586 69.8748 32.8981 69.7327 32.7711C69.5974 32.644 69.4216 32.5838 69.2051 32.5838H68.0146V33.9747L68.0214 33.9813ZM68.0214 35.994H69.2457C69.4148 35.994 69.5704 35.9606 69.7057 35.9004C69.841 35.8402 69.9492 35.7533 70.0304 35.6396C70.1115 35.526 70.1521 35.3922 70.1521 35.2317C70.1521 35.0713 70.1183 34.9375 70.0439 34.8105C69.9695 34.6834 69.8748 34.5831 69.7463 34.5096C69.6245 34.436 69.4825 34.3959 69.3201 34.3959H68.0146V35.994H68.0214Z" fill="#231F20"/>
<path d="M73.4734 36.4955C73.054 36.4955 72.7022 36.4019 72.4114 36.2147C72.1205 36.0274 71.9041 35.7667 71.7552 35.439C71.6064 35.1114 71.532 34.7302 71.532 34.2956C71.532 33.861 71.6064 33.4799 71.7552 33.1522C71.9041 32.8246 72.1205 32.5638 72.4114 32.3766C72.7022 32.1893 73.054 32.0957 73.4734 32.0957C73.8928 32.0957 74.2513 32.1893 74.5354 32.3766C74.8262 32.5638 75.0427 32.8246 75.1915 33.1522C75.3403 33.4799 75.4147 33.861 75.4147 34.2956C75.4147 34.7302 75.3403 35.1114 75.1915 35.439C75.0427 35.7667 74.8262 36.0274 74.5354 36.2147C74.2445 36.4019 73.8928 36.4955 73.4734 36.4955ZM73.4734 36.0809C73.8048 36.0809 74.0754 36.0074 74.2986 35.8536C74.5218 35.6998 74.6842 35.4925 74.7924 35.2251C74.9006 34.9576 74.9547 34.6433 74.9547 34.2956C74.9547 33.9479 74.9006 33.6336 74.7924 33.3662C74.6842 33.0987 74.5151 32.8914 74.2986 32.7376C74.0822 32.5838 73.8048 32.5103 73.4734 32.5103C73.1419 32.5103 72.8714 32.5838 72.6481 32.7376C72.4317 32.8914 72.2626 33.0987 72.1543 33.3662C72.0461 33.6336 71.9852 33.9479 71.9852 34.2956C71.9852 34.6433 72.0393 34.9576 72.1476 35.2251C72.2558 35.4925 72.4249 35.6998 72.6414 35.8536C72.8646 36.0074 73.1352 36.0809 73.4666 36.0809H73.4734Z" fill="#231F20"/>
<path d="M76.5308 34.4828V34.1151H78.2895V34.4828H76.5308Z" fill="#231F20"/>
<path d="M79.6356 36.4019V32.1827H82.8689V36.4019H82.436V32.5972H80.0685V36.4019H79.6356Z" fill="#231F20"/>
<path d="M84.2759 36.4019V32.1827H85.9061C85.9467 32.1827 85.994 32.1827 86.0481 32.1827C86.1022 32.1827 86.1496 32.1893 86.2037 32.2027C86.4269 32.2361 86.6096 32.3097 86.7651 32.4301C86.9207 32.5504 87.0357 32.7042 87.1169 32.8847C87.198 33.0653 87.2386 33.2659 87.2386 33.4865C87.2386 33.7072 87.198 33.9078 87.1169 34.0883C87.0357 34.2689 86.9207 34.4227 86.7651 34.543C86.6096 34.6634 86.4269 34.7369 86.2037 34.7704C86.1496 34.7771 86.0955 34.7837 86.0481 34.7904C85.994 34.7904 85.9534 34.7904 85.9061 34.7904H84.7088V36.3952H84.2759V36.4019ZM84.702 34.3892H85.8858C85.9196 34.3892 85.9602 34.3892 86.0075 34.3892C86.0549 34.3892 86.1022 34.3759 86.1428 34.3692C86.2849 34.3357 86.4066 34.2756 86.5013 34.1886C86.596 34.1017 86.6637 33.9947 86.711 33.8744C86.7584 33.754 86.7787 33.627 86.7787 33.4932C86.7787 33.3595 86.7584 33.2391 86.711 33.1121C86.6637 32.9917 86.596 32.8847 86.5013 32.7978C86.4066 32.7109 86.2916 32.6507 86.1428 32.6173C86.0955 32.6106 86.0549 32.6039 86.0075 32.5972C85.9602 32.5972 85.9196 32.5972 85.8858 32.5972H84.702V34.3892Z" fill="#231F20"/>
<path d="M90.1067 36.4955C89.6873 36.4955 89.3355 36.4019 89.0447 36.2147C88.7538 36.0274 88.5374 35.7667 88.3886 35.439C88.2397 35.1114 88.1653 34.7302 88.1653 34.2956C88.1653 33.861 88.2397 33.4799 88.3886 33.1522C88.5374 32.8246 88.7538 32.5638 89.0447 32.3766C89.3355 32.1893 89.6873 32.0957 90.1067 32.0957C90.5261 32.0957 90.8846 32.1893 91.1687 32.3766C91.4595 32.5638 91.676 32.8246 91.8248 33.1522C91.9736 33.4799 92.048 33.861 92.048 34.2956C92.048 34.7302 91.9736 35.1114 91.8248 35.439C91.676 35.7667 91.4595 36.0274 91.1687 36.2147C90.8778 36.4019 90.5261 36.4955 90.1067 36.4955ZM90.1067 36.0809C90.4381 36.0809 90.7087 36.0074 90.9319 35.8536C91.1551 35.6998 91.3175 35.4925 91.4257 35.2251C91.5339 34.9576 91.588 34.6433 91.588 34.2956C91.588 33.9479 91.5339 33.6336 91.4257 33.3662C91.3175 33.0987 91.1484 32.8914 90.9319 32.7376C90.7155 32.5838 90.4381 32.5103 90.1067 32.5103C89.7752 32.5103 89.5047 32.5838 89.2814 32.7376C89.065 32.8914 88.8959 33.0987 88.7876 33.3662C88.6794 33.6336 88.6185 33.9479 88.6185 34.2956C88.6185 34.6433 88.6727 34.9576 88.7809 35.2251C88.8891 35.4925 89.0582 35.6998 89.2747 35.8536C89.4979 36.0074 89.7685 36.0809 90.0999 36.0809H90.1067Z" fill="#231F20"/>
<path d="M95.9781 36.4019V32.9382L93.6579 36.4019H93.225V32.1827H93.6579V35.6396L95.9781 32.1827H96.411V36.4019H95.9781Z" fill="#231F20"/>
<path d="M99.1708 36.4955C98.8867 36.4955 98.6364 36.4554 98.4267 36.3685C98.217 36.2815 98.0412 36.1746 97.9126 36.0341C97.7841 35.8937 97.6759 35.7466 97.6082 35.5861L98.0006 35.3588C98.0479 35.4925 98.1223 35.6129 98.2238 35.7199C98.3253 35.8269 98.4538 35.9138 98.6161 35.9806C98.7785 36.0475 98.9679 36.0743 99.1843 36.0743C99.4008 36.0743 99.6037 36.0408 99.766 35.9673C99.9284 35.8937 100.043 35.7934 100.125 35.6597C100.206 35.526 100.246 35.3789 100.246 35.205C100.246 35.0111 100.199 34.864 100.111 34.757C100.016 34.65 99.8946 34.5765 99.739 34.5296C99.5834 34.4828 99.4143 34.4628 99.2249 34.4561C99.0829 34.4561 98.9814 34.4494 98.9205 34.4427C98.8596 34.436 98.819 34.4427 98.7988 34.4427H98.7446V34.0282H98.8529C98.9137 34.0282 98.9746 34.0282 99.0423 34.0282C99.1099 34.0282 99.164 34.0282 99.1978 34.0282C99.4752 34.0148 99.6984 33.9412 99.854 33.8075C100.016 33.6738 100.097 33.4932 100.097 33.2659C100.097 33.0252 100.01 32.8379 99.8472 32.7042C99.6781 32.5705 99.4616 32.5036 99.1911 32.5036C98.9408 32.5036 98.7243 32.5638 98.5552 32.6841C98.3794 32.8045 98.2441 32.965 98.1291 33.1656L97.7774 32.9048C97.9126 32.6641 98.0953 32.4702 98.3388 32.3164C98.5823 32.1626 98.8664 32.089 99.1978 32.089C99.3737 32.089 99.5428 32.1158 99.7119 32.1626C99.8743 32.2094 100.016 32.2829 100.145 32.3766C100.273 32.4702 100.368 32.5905 100.442 32.7376C100.517 32.8847 100.551 33.0519 100.551 33.2458C100.551 33.4732 100.503 33.6738 100.402 33.8409C100.3 34.0081 100.172 34.1418 100.016 34.2221C100.233 34.2889 100.402 34.4026 100.524 34.5631C100.645 34.7236 100.706 34.9375 100.706 35.1983C100.706 35.4591 100.645 35.6797 100.517 35.8737C100.388 36.0676 100.212 36.2147 99.9825 36.315C99.7525 36.422 99.4819 36.4688 99.1708 36.4688V36.4955Z" fill="#231F20"/>
<path d="M101.897 36.4019V32.1827H103.527C103.764 32.1827 103.967 32.2295 104.143 32.3298C104.318 32.4301 104.454 32.5571 104.555 32.7243C104.65 32.8914 104.704 33.072 104.704 33.2726C104.704 33.4999 104.643 33.7005 104.521 33.881C104.4 34.0616 104.237 34.1819 104.034 34.2488V34.1084C104.305 34.1886 104.515 34.3224 104.67 34.5163C104.826 34.7102 104.907 34.9509 104.907 35.2251C104.907 35.4725 104.853 35.6797 104.751 35.8536C104.65 36.0275 104.501 36.1679 104.312 36.2615C104.122 36.3551 103.906 36.4019 103.655 36.4019H101.89H101.897ZM102.33 33.9813H103.52C103.655 33.9813 103.777 33.9479 103.892 33.8877C104 33.8276 104.095 33.7406 104.156 33.6336C104.224 33.5267 104.251 33.3996 104.251 33.2592C104.251 33.0586 104.183 32.8981 104.041 32.7711C103.906 32.644 103.73 32.5838 103.513 32.5838H102.323V33.9747L102.33 33.9813ZM102.33 35.994H103.554C103.723 35.994 103.879 35.9606 104.014 35.9004C104.149 35.8402 104.258 35.7533 104.339 35.6396C104.42 35.526 104.46 35.3922 104.46 35.2317C104.46 35.0713 104.427 34.9375 104.352 34.8105C104.278 34.6834 104.183 34.5831 104.055 34.5096C103.933 34.436 103.791 34.3959 103.628 34.3959H102.323V35.994H102.33Z" fill="#231F20"/>
<path d="M107.782 36.4955C107.362 36.4955 107.011 36.4019 106.72 36.2147C106.429 36.0274 106.212 35.7667 106.064 35.439C105.915 35.1114 105.84 34.7302 105.84 34.2956C105.84 33.861 105.915 33.4799 106.064 33.1522C106.212 32.8246 106.429 32.5638 106.72 32.3766C107.011 32.1893 107.362 32.0957 107.782 32.0957C108.201 32.0957 108.56 32.1893 108.844 32.3766C109.135 32.5638 109.351 32.8246 109.5 33.1522C109.649 33.4799 109.723 33.861 109.723 34.2956C109.723 34.7302 109.649 35.1114 109.5 35.439C109.351 35.7667 109.135 36.0274 108.844 36.2147C108.553 36.4019 108.201 36.4955 107.782 36.4955ZM107.782 36.0809C108.113 36.0809 108.384 36.0074 108.607 35.8536C108.83 35.6998 108.992 35.4925 109.101 35.2251C109.209 34.9576 109.263 34.6433 109.263 34.2956C109.263 33.9479 109.209 33.6336 109.101 33.3662C108.992 33.0987 108.823 32.8914 108.607 32.7376C108.39 32.5838 108.113 32.5103 107.782 32.5103C107.45 32.5103 107.18 32.5838 106.956 32.7376C106.74 32.8914 106.571 33.0987 106.463 33.3662C106.354 33.6336 106.294 33.9479 106.294 34.2956C106.294 34.6433 106.348 34.9576 106.456 35.2251C106.564 35.4925 106.733 35.6998 106.95 35.8536C107.173 36.0074 107.443 36.0809 107.775 36.0809H107.782Z" fill="#231F20"/>
<path d="M110.582 37.1107V35.994C110.744 35.994 110.88 35.9539 110.974 35.867C111.069 35.78 111.15 35.6731 111.204 35.5326C111.259 35.3922 111.299 35.2384 111.326 35.0646C111.353 34.8907 111.38 34.7169 111.394 34.5363C111.421 34.2756 111.441 34.0282 111.461 33.7807C111.475 33.54 111.495 33.2859 111.502 33.0252C111.516 32.7644 111.529 32.4835 111.549 32.1693H114.147V35.9806H114.451V37.0973H114.025V36.3952H111.008V37.0973H110.575L110.582 37.1107ZM111.407 35.994H113.721V32.6039H111.948C111.935 32.8379 111.928 33.072 111.915 33.2926C111.901 33.5133 111.888 33.7406 111.874 33.968C111.861 34.1953 111.84 34.4294 111.813 34.6768C111.793 34.9041 111.766 35.098 111.739 35.2652C111.712 35.4323 111.671 35.5794 111.617 35.6931C111.563 35.8068 111.495 35.9138 111.407 35.994Z" fill="#231F20"/>
<path d="M117.394 36.4955C116.974 36.4955 116.623 36.4019 116.332 36.2147C116.041 36.0274 115.824 35.7667 115.676 35.439C115.527 35.1114 115.452 34.7302 115.452 34.2956C115.452 33.861 115.527 33.4799 115.676 33.1522C115.824 32.8246 116.041 32.5638 116.332 32.3766C116.623 32.1893 116.974 32.0957 117.394 32.0957C117.881 32.0957 118.287 32.2228 118.598 32.4702C118.909 32.7243 119.119 33.0586 119.234 33.4799L118.794 33.5935C118.706 33.2592 118.544 32.9917 118.314 32.7978C118.084 32.6039 117.772 32.5036 117.394 32.5036C117.062 32.5036 116.792 32.5772 116.568 32.731C116.352 32.8847 116.183 33.092 116.075 33.3595C115.966 33.627 115.906 33.9412 115.906 34.2889C115.906 34.6433 115.96 34.9509 116.068 35.2184C116.176 35.4858 116.345 35.6931 116.568 35.8469C116.792 36.0007 117.069 36.0743 117.394 36.0743C117.772 36.0743 118.077 35.974 118.314 35.78C118.55 35.5861 118.706 35.3187 118.794 34.9843L119.234 35.098C119.119 35.5193 118.909 35.8536 118.598 36.1077C118.287 36.3618 117.887 36.4821 117.394 36.4821V36.4955Z" fill="#231F20"/>
<path d="M121.588 36.4019V32.5972H120.113V32.1827H123.488V32.5972H122.014V36.4019H121.581H121.588Z" fill="#231F20"/>
<path d="M124.544 36.4019V32.1827H126.174C126.41 32.1827 126.613 32.2295 126.789 32.3298C126.965 32.4301 127.1 32.5571 127.202 32.7243C127.297 32.8914 127.351 33.072 127.351 33.2726C127.351 33.4999 127.29 33.7005 127.168 33.881C127.046 34.0616 126.884 34.1819 126.681 34.2488V34.1084C126.952 34.1886 127.161 34.3224 127.317 34.5163C127.472 34.7102 127.554 34.9509 127.554 35.2251C127.554 35.4725 127.499 35.6797 127.398 35.8536C127.297 36.0275 127.148 36.1679 126.958 36.2615C126.769 36.3551 126.552 36.4019 126.302 36.4019H124.537H124.544ZM124.976 33.9813H126.167C126.302 33.9813 126.424 33.9479 126.539 33.8877C126.647 33.8276 126.742 33.7406 126.803 33.6336C126.87 33.5267 126.897 33.3996 126.897 33.2592C126.897 33.0586 126.83 32.8981 126.688 32.7711C126.552 32.644 126.377 32.5838 126.16 32.5838H124.97V33.9747L124.976 33.9813ZM124.976 35.994H126.201C126.37 35.994 126.525 35.9606 126.661 35.9004C126.796 35.8402 126.904 35.7533 126.985 35.6396C127.067 35.526 127.107 35.3922 127.107 35.2317C127.107 35.0713 127.073 34.9375 126.999 34.8105C126.925 34.6834 126.83 34.5831 126.701 34.5096C126.58 34.436 126.437 34.3959 126.275 34.3959H124.97V35.994H124.976Z" fill="#231F20"/>
<path d="M128.724 36.4019V32.1827H131.362V32.5972H129.157V34.0549H131.01V34.4695H129.157V35.9873H131.362V36.4019H128.724Z" fill="#231F20"/>
<path d="M132.647 36.4019V32.1827H133.08V34.0816H135.414V32.1827H135.84V36.4019H135.414V34.4962H133.08V36.4019H132.647Z" fill="#231F20"/>
<path d="M137.24 36.4019V32.1827H137.673V34.0816H140.007V32.1827H140.433V36.4019H140.007V34.4962H137.673V36.4019H137.24Z" fill="#231F20"/>
<path d="M141.542 36.4019L142.996 32.1827H143.565L145.019 36.4019H144.572L143.193 32.4234H143.362L141.989 36.4019H141.542ZM142.191 35.3788V34.9777H144.37V35.3788H142.191Z" fill="#231F20"/>
<path d="M145.959 36.4019L146.872 34.5296L147.285 34.6901L146.453 36.4086H145.959V36.4019ZM148.577 36.4019V34.7971H147.177L147.028 34.7637C146.717 34.7035 146.473 34.5564 146.304 34.3224C146.135 34.0883 146.054 33.8142 146.054 33.4932C146.054 33.2726 146.094 33.072 146.176 32.8914C146.257 32.7109 146.372 32.5571 146.527 32.4367C146.683 32.3164 146.866 32.2428 147.089 32.2094C147.143 32.2027 147.197 32.196 147.244 32.1893C147.298 32.1893 147.346 32.1893 147.386 32.1893H149.017V36.4086H148.584L148.577 36.4019ZM148.577 32.5972H147.393C147.359 32.5972 147.319 32.5972 147.271 32.5972C147.224 32.5972 147.177 32.6039 147.136 32.6173C146.994 32.6507 146.872 32.7109 146.778 32.7978C146.683 32.8847 146.615 32.9917 146.568 33.1121C146.521 33.2324 146.5 33.3595 146.5 33.4932C146.5 33.627 146.521 33.7473 146.568 33.8744C146.615 33.9947 146.683 34.1017 146.778 34.1886C146.872 34.2756 146.987 34.3357 147.136 34.3692C147.183 34.3759 147.224 34.3892 147.271 34.3892C147.319 34.3892 147.359 34.3892 147.393 34.3892H148.577V32.5972Z" fill="#231F20"/>
<path d="M152.169 36.4019V32.1827H152.602V34.1753L154.523 32.1827H155.071L153.102 34.2221L155.226 36.4019H154.665L152.588 34.2956V36.4019H152.155H152.169Z" fill="#231F20"/>
<path d="M157.742 36.4955C157.323 36.4955 156.971 36.4019 156.681 36.2147C156.39 36.0274 156.173 35.7667 156.024 35.439C155.876 35.1114 155.801 34.7302 155.801 34.2956C155.801 33.861 155.876 33.4799 156.024 33.1522C156.173 32.8246 156.39 32.5638 156.681 32.3766C156.971 32.1893 157.323 32.0957 157.742 32.0957C158.162 32.0957 158.52 32.1893 158.804 32.3766C159.095 32.5638 159.312 32.8246 159.461 33.1522C159.609 33.4799 159.684 33.861 159.684 34.2956C159.684 34.7302 159.609 35.1114 159.461 35.439C159.312 35.7667 159.095 36.0274 158.804 36.2147C158.514 36.4019 158.162 36.4955 157.742 36.4955ZM157.742 36.0809C158.074 36.0809 158.345 36.0074 158.568 35.8536C158.791 35.6998 158.953 35.4925 159.062 35.2251C159.17 34.9576 159.224 34.6433 159.224 34.2956C159.224 33.9479 159.17 33.6336 159.062 33.3662C158.953 33.0987 158.784 32.8914 158.568 32.7376C158.351 32.5838 158.074 32.5103 157.742 32.5103C157.411 32.5103 157.14 32.5838 156.917 32.7376C156.701 32.8914 156.532 33.0987 156.423 33.3662C156.315 33.6336 156.254 33.9479 156.254 34.2956C156.254 34.6433 156.308 34.9576 156.417 35.2251C156.525 35.4925 156.694 35.6998 156.91 35.8536C157.134 36.0074 157.404 36.0809 157.736 36.0809H157.742Z" fill="#231F20"/>
<path d="M160.861 36.4019V32.1827H161.253L162.91 35.7332L164.561 32.1827H164.96V36.4019H164.547V33.1455L163.046 36.4019H162.768L161.267 33.1455V36.4019H160.854H160.861Z" fill="#231F20"/>
<path d="M166.367 36.4019V32.1827H169.6V36.4019H169.167V32.5972H166.8V36.4019H166.367Z" fill="#231F20"/>
<path d="M170.71 36.4019L172.164 32.1827H172.732L174.186 36.4019H173.74L172.36 32.4234H172.529L171.156 36.4019H170.71ZM171.359 35.3788V34.9777H173.537V35.3788H171.359Z" fill="#231F20"/>
<path d="M175.302 36.4019V32.1827H175.735V34.0816H178.069V32.1827H178.495V36.4019H178.069V34.4962H175.735V36.4019H175.302Z" fill="#231F20"/>
<path d="M182.655 36.4019V32.9382L180.335 36.4019H179.902V32.1827H180.335V35.6396L182.655 32.1827H183.088V36.4019H182.655Z" fill="#231F20"/>
<path d="M184.319 36.4019L185.232 34.5296L185.645 34.6901L184.813 36.4086H184.319V36.4019ZM186.937 36.4019V34.7971H185.537L185.388 34.7637C185.077 34.7035 184.833 34.5564 184.664 34.3224C184.495 34.0883 184.414 33.8142 184.414 33.4932C184.414 33.2726 184.455 33.072 184.536 32.8914C184.617 32.7109 184.732 32.5571 184.887 32.4367C185.043 32.3164 185.226 32.2428 185.449 32.2094C185.503 32.2027 185.557 32.196 185.604 32.1893C185.659 32.1893 185.706 32.1893 185.746 32.1893H187.377V36.4086H186.944L186.937 36.4019ZM186.937 32.5972H185.753C185.719 32.5972 185.679 32.5972 185.631 32.5972C185.584 32.5972 185.537 32.6039 185.496 32.6173C185.354 32.6507 185.232 32.7109 185.138 32.7978C185.043 32.8847 184.975 32.9917 184.928 33.1121C184.881 33.2324 184.86 33.3595 184.86 33.4932C184.86 33.627 184.881 33.7473 184.928 33.8744C184.975 33.9947 185.043 34.1017 185.138 34.1886C185.232 34.2756 185.347 34.3357 185.496 34.3692C185.544 34.3759 185.584 34.3892 185.631 34.3892C185.679 34.3892 185.719 34.3892 185.753 34.3892H186.937V32.5972Z" fill="#231F20"/>
<path d="M147.894 20.6148V14.2425H140.615L147.894 20.6148Z" fill="#31B7C6"/>
</g>
<defs>
<linearGradient id="paint0_linear_1_1590" x1="4.99202" y1="6.49938" x2="4.41696" y2="43.3027" gradientUnits="userSpaceOnUse">
<stop offset="0.1" stop-color="#10717A"/>
<stop offset="0.83" stop-color="#49C3D5"/>
</linearGradient>
<linearGradient id="paint1_linear_1_1590" x1="22.9579" y1="28.3111" x2="28.6734" y2="34.1944" gradientUnits="userSpaceOnUse">
<stop stop-color="#49C3D5"/>
<stop offset="0.96" stop-color="#10717A"/>
</linearGradient>
<linearGradient id="paint2_linear_1_1590" x1="15.6457" y1="26.82" x2="10.813" y2="34.1532" gradientUnits="userSpaceOnUse">
<stop stop-color="#49C3D5"/>
<stop offset="0.96" stop-color="#10717A"/>
</linearGradient>
<linearGradient id="paint3_linear_1_1590" x1="8.26592" y1="10.5983" x2="15.4167" y2="4.70005" gradientUnits="userSpaceOnUse">
<stop stop-color="#49C3D5"/>
<stop offset="0.96" stop-color="#10717A"/>
</linearGradient>
<linearGradient id="paint4_linear_1_1590" x1="32.7999" y1="6.49938" x2="33.3816" y2="43.3294" gradientUnits="userSpaceOnUse">
<stop offset="0.17" stop-color="#10717A"/>
<stop offset="0.58" stop-color="#49C3D5"/>
</linearGradient>
<linearGradient id="paint5_linear_1_1590" x1="17.9253" y1="1.95918" x2="33.0916" y2="12.5339" gradientUnits="userSpaceOnUse">
<stop stop-color="#49C3D5"/>
<stop offset="0.96" stop-color="#10717A"/>
</linearGradient>
<clipPath id="clip0_1_1590">
<rect width="195" height="38" fill="white"/>
</clipPath>
</defs>
</svg>
